<?xml version="1.0" encoding="UTF-8"?>
<svg xmlns="http://www.w3.org/2000/svg" xmlns:xlink="http://www.w3.org/1999/xlink" viewBox="0 0 874.71 510.46">
  <defs>
    <style>
      .cls-1 {
        stroke-width: .7px;
      }

      .cls-1, .cls-2, .cls-3, .cls-4, .cls-5, .cls-6, .cls-7, .cls-8, .cls-9, .cls-10 {
        fill: none;
      }

      .cls-1, .cls-2, .cls-3, .cls-4, .cls-5, .cls-6, .cls-7, .cls-8, .cls-10 {
        stroke: #000;
        stroke-miterlimit: 10;
      }

      .cls-11 {
        opacity: .35;
      }

      .cls-11, .cls-12, .cls-13, .cls-14, .cls-15, .cls-16, .cls-17, .cls-18 {
        stroke-width: 0px;
      }

      .cls-11, .cls-13, .cls-17 {
        fill: #6b6e70;
      }

      .cls-2 {
        stroke-width: .54px;
      }

      .cls-4 {
        stroke-width: .7px;
      }

      .cls-19 {
        opacity: .35;
      }

      .cls-5 {
        stroke-width: .54px;
      }

      .cls-6 {
        stroke-width: .5px;
      }

      .cls-12 {
        opacity: .21;
      }

      .cls-12, .cls-16, .cls-18 {
        fill: #61892f;
      }

      .cls-7 {
        stroke-width: .78px;
      }

      .cls-8 {
        stroke-width: .85px;
      }

      .cls-13 {
        opacity: .36;
      }

      .cls-14 {
        opacity: .5;
      }

      .cls-14, .cls-15 {
        fill: #474b4f;
      }

      .cls-15, .cls-17, .cls-18 {
        opacity: .32;
      }

      .cls-9 {
        stroke: url(#linear-gradient);
      }

      .cls-10 {
        stroke-width: .79px;
      }

      .cls-16 {
        opacity: .18;
      }
    </style>
    <linearGradient id="linear-gradient" x1="158.02" y1="569.19" x2="580.54" y2="146.67" gradientTransform="translate(43 -81)" gradientUnits="userSpaceOnUse">
      <stop offset="0" stop-color="#fff"/>
      <stop offset=".02" stop-color="#fbfdf9"/>
      <stop offset=".22" stop-color="#d8ebbd"/>
      <stop offset=".41" stop-color="#badc8b"/>
      <stop offset=".59" stop-color="#a3d164"/>
      <stop offset=".75" stop-color="#93c848"/>
      <stop offset=".89" stop-color="#89c337"/>
      <stop offset="1" stop-color="#86c232"/>
    </linearGradient>
  </defs>
  <g id="Layer_3" data-name="Layer 3">
    <polygon class="cls-15" points="199.93 135.25 151.43 135.25 127.18 177.25 151.43 219.25 199.93 219.25 224.18 177.25 199.93 135.25"/>
    <polygon class="cls-12" points="194.33 334.25 147.57 334.25 124.18 374.75 147.57 415.25 194.33 415.25 217.71 374.75 194.33 334.25"/>
    <polygon class="cls-15" points="362.33 136.25 315.57 136.25 292.18 176.75 315.57 217.25 362.33 217.25 385.71 176.75 362.33 136.25"/>
    <polygon class="cls-17" points="440.33 181.25 393.57 181.25 370.18 221.75 393.57 262.25 440.33 262.25 463.71 221.75 440.33 181.25"/>
    <polygon class="cls-14" points="519.33 225.25 472.57 225.25 449.18 265.75 472.57 306.25 519.33 306.25 542.71 265.75 519.33 225.25"/>
    <polygon class="cls-18" points="690.33 309.25 643.57 309.25 620.18 349.75 643.57 390.25 690.33 390.25 713.71 349.75 690.33 309.25"/>
    <polygon class="cls-16" points="772.33 176.25 725.57 176.25 702.18 216.75 725.57 257.25 772.33 257.25 795.71 216.75 772.33 176.25"/>
    <polygon class="cls-13" points="772.33 268.25 725.57 268.25 702.18 308.75 725.57 349.25 772.33 349.25 795.71 308.75 772.33 268.25"/>
    <polygon class="cls-15" points="851.33 314.25 804.57 314.25 781.18 354.75 804.57 395.25 851.33 395.25 874.71 354.75 851.33 314.25"/>
    <polygon class="cls-15" points="613.33 354.25 566.57 354.25 543.18 394.75 566.57 435.25 613.33 435.25 636.71 394.75 613.33 354.25"/>
    <polygon class="cls-11" points="362.33 44.25 315.57 44.25 292.18 84.75 315.57 125.25 362.33 125.25 385.71 84.75 362.33 44.25"/>
    <polygon class="cls-18" points="281.33 176.25 234.57 176.25 211.18 216.75 234.57 257.25 281.33 257.25 304.71 216.75 281.33 176.25"/>
  </g>
  <g id="Layer_2" data-name="Layer 2">
    <g class="cls-19">
      <g>
        <g>
          <polygon class="cls-6" points="406.71 403.38 375.78 403.38 360.31 430.17 375.78 456.96 406.71 456.96 422.18 430.17 406.71 403.38"/>
          <polygon class="cls-6" points="413.46 85.52 382.03 85.52 366.31 112.74 382.03 139.96 413.46 139.96 429.18 112.74 413.46 85.52"/>
          <polygon class="cls-7" points="131.09 219.75 71.9 219.75 42.31 271 71.9 322.26 131.09 322.26 160.68 271 131.09 219.75"/>
          <polygon class="cls-1" points="212.34 81.75 159.65 81.75 133.31 127.37 159.65 173 212.34 173 238.68 127.37 212.34 81.75"/>
          <polygon class="cls-5" points="61.71 91.75 20.78 91.75 .31 127.2 20.78 162.65 61.71 162.65 82.18 127.2 61.71 91.75"/>
          <polygon class="cls-6" points="255.83 .25 234.82 .25 224.31 18.45 234.82 36.65 255.83 36.65 266.34 18.45 255.83 .25"/>
          <polygon class="cls-3" points="347.94 205.75 272.19 205.75 234.31 271.35 272.19 336.96 347.94 336.96 385.82 271.35 347.94 205.75"/>
          <polygon class="cls-8" points="262.33 373.75 198.24 373.75 166.2 429.25 198.24 484.75 262.33 484.75 294.37 429.25 262.33 373.75"/>
          <line class="cls-2" x1="82.18" y1="127.2" x2="133.31" y2="127.2"/>
          <line class="cls-2" x1="131.09" y1="219.75" x2="159.65" y2="173"/>
          <line class="cls-2" x1="212.34" y1="81.75" x2="234.82" y2="36.65"/>
          <line class="cls-2" x1="160.68" y1="271" x2="234.31" y2="271.35"/>
          <line class="cls-2" x1="347.94" y1="205.75" x2="382.03" y2="139.96"/>
          <line class="cls-2" x1="347.94" y1="336.96" x2="375.78" y2="403.38"/>
          <line class="cls-2" x1="294.37" y1="429.25" x2="360.31" y2="430.17"/>
        </g>
        <g>
          <polygon class="cls-6" points="457.71 260.38 426.78 260.38 411.31 287.17 426.78 313.96 457.71 313.96 473.18 287.17 457.71 260.38"/>
          <polygon class="cls-6" points="608.43 173.71 586.92 173.71 576.17 192.34 586.92 210.96 608.43 210.96 619.18 192.34 608.43 173.71"/>
          <polygon class="cls-3" points="568.94 378.75 493.19 378.75 455.31 444.35 493.19 509.96 568.94 509.96 606.82 444.35 568.94 378.75"/>
          <polygon class="cls-4" points="683.18 255.75 630.18 255.75 603.68 301.65 630.18 347.55 683.18 347.55 709.68 301.65 683.18 255.75"/>
          <polygon class="cls-2" points="823.18 265.74 782.18 265.74 761.68 301.24 782.18 336.75 823.18 336.75 843.68 301.24 823.18 265.74"/>
          <polygon class="cls-10" points="769.94 392.75 710.48 392.75 680.74 444.25 710.48 495.75 769.94 495.75 799.68 444.25 769.94 392.75"/>
          <line class="cls-2" x1="457.71" y1="313.96" x2="493.19" y2="378.75"/>
          <line class="cls-2" x1="606.82" y1="444.35" x2="680.74" y2="444.25"/>
          <line class="cls-2" x1="710.48" y1="392.75" x2="683.18" y2="347.55"/>
          <line class="cls-2" x1="709.68" y1="301.65" x2="761.68" y2="301.24"/>
          <line class="cls-2" x1="630.18" y1="255.75" x2="608.43" y2="210.96"/>
        </g>
      </g>
      <g>
        <g>
          <polygon class="cls-9" points="406.71 403.38 375.78 403.38 360.31 430.17 375.78 456.96 406.71 456.96 422.18 430.17 406.71 403.38"/>
          <polygon class="cls-9" points="413.46 85.52 382.03 85.52 366.31 112.74 382.03 139.96 413.46 139.96 429.18 112.74 413.46 85.52"/>
          <polygon class="cls-9" points="131.09 219.75 71.9 219.75 42.31 271 71.9 322.26 131.09 322.26 160.68 271 131.09 219.75"/>
          <polygon class="cls-9" points="212.34 81.75 159.65 81.75 133.31 127.37 159.65 173 212.34 173 238.68 127.37 212.34 81.75"/>
          <polygon class="cls-9" points="61.71 91.75 20.78 91.75 .31 127.2 20.78 162.65 61.71 162.65 82.18 127.2 61.71 91.75"/>
          <polygon class="cls-9" points="255.83 .25 234.82 .25 224.31 18.45 234.82 36.65 255.83 36.65 266.34 18.45 255.83 .25"/>
          <polygon class="cls-9" points="347.94 205.75 272.19 205.75 234.31 271.35 272.19 336.96 347.94 336.96 385.82 271.35 347.94 205.75"/>
          <polygon class="cls-9" points="262.33 373.75 198.24 373.75 166.2 429.25 198.24 484.75 262.33 484.75 294.37 429.25 262.33 373.75"/>
          <line class="cls-9" x1="82.18" y1="127.2" x2="133.31" y2="127.2"/>
          <line class="cls-9" x1="131.09" y1="219.75" x2="159.65" y2="173"/>
          <line class="cls-9" x1="212.34" y1="81.75" x2="234.82" y2="36.65"/>
          <line class="cls-9" x1="160.68" y1="271" x2="234.31" y2="271.35"/>
          <line class="cls-9" x1="347.94" y1="205.75" x2="382.03" y2="139.96"/>
          <line class="cls-9" x1="347.94" y1="336.96" x2="375.78" y2="403.38"/>
          <line class="cls-9" x1="294.37" y1="429.25" x2="360.31" y2="430.17"/>
        </g>
        <g>
          <polygon class="cls-9" points="457.71 260.38 426.78 260.38 411.31 287.17 426.78 313.96 457.71 313.96 473.18 287.17 457.71 260.38"/>
          <polygon class="cls-9" points="608.43 173.71 586.92 173.71 576.17 192.34 586.92 210.96 608.43 210.96 619.18 192.34 608.43 173.71"/>
          <polygon class="cls-9" points="568.94 378.75 493.19 378.75 455.31 444.35 493.19 509.96 568.94 509.96 606.82 444.35 568.94 378.75"/>
          <polygon class="cls-9" points="683.18 255.75 630.18 255.75 603.68 301.65 630.18 347.55 683.18 347.55 709.68 301.65 683.18 255.75"/>
          <polygon class="cls-9" points="823.18 265.74 782.18 265.74 761.68 301.24 782.18 336.75 823.18 336.75 843.68 301.24 823.18 265.74"/>
          <polygon class="cls-9" points="769.94 392.75 710.48 392.75 680.74 444.25 710.48 495.75 769.94 495.75 799.68 444.25 769.94 392.75"/>
          <line class="cls-9" x1="457.71" y1="313.96" x2="493.19" y2="378.75"/>
          <line class="cls-9" x1="606.82" y1="444.35" x2="680.74" y2="444.25"/>
          <line class="cls-9" x1="710.48" y1="392.75" x2="683.18" y2="347.55"/>
          <line class="cls-9" x1="709.68" y1="301.65" x2="761.68" y2="301.24"/>
          <line class="cls-9" x1="630.18" y1="255.75" x2="608.43" y2="210.96"/>
        </g>
      </g>
    </g>
  </g>
</svg>