<?xml version="1.0" encoding="UTF-8"?>
<svg id="Layer_1" data-name="Layer 1" xmlns="http://www.w3.org/2000/svg" xmlns:xlink="http://www.w3.org/1999/xlink" viewBox="0 0 303.94 58.13">
  <defs>
    <style>
      .cls-1 {
        fill: url(#linear-gradient);
      }

      .cls-1, .cls-2, .cls-3, .cls-4, .cls-5 {
        stroke-width: 0px;
      }

      .cls-2 {
        fill: #000;
      }

      .cls-3 {
        fill: url(#linear-gradient-2);
      }

      .cls-4 {
        fill: #32874c;
      }

      .cls-5 {
        fill: #fff;
      }

      .cls-6 {
        fill: none;
        stroke: #fff;
        stroke-miterlimit: 10;
        stroke-width: .75px;
      }
    </style>
    <linearGradient id="linear-gradient" x1="83.83" y1="-174.91" x2="83.83" y2="-137.31" gradientTransform="translate(68 175)" gradientUnits="userSpaceOnUse">
      <stop offset="0" stop-color="#fff"/>
      <stop offset=".19" stop-color="#b1d87b"/>
      <stop offset=".81" stop-color="#32874c"/>
    </linearGradient>
    <linearGradient id="linear-gradient-2" x1="117.41" y1=".19" x2="117.41" y2="54.37" gradientUnits="userSpaceOnUse">
      <stop offset="0" stop-color="#fff"/>
      <stop offset=".41" stop-color="#b1d87b"/>
      <stop offset="1" stop-color="#32874c"/>
    </linearGradient>
  </defs>
  <g>
    <g>
      <path class="cls-2" d="M0,37.22V6.12C0,3.38.83,1.63,2.49.87,3.6.35,4.62.09,5.55.09c2.35,0,3.96,1.53,4.82,4.58l7.69,26.65L26.09,4.66C26.99,1.61,28.6.09,30.93.09c.94,0,1.96.26,3.07.78,1.63.76,2.45,2.51,2.45,5.25v31.1h-5.25V6.07l-8.11,27.14c-.45,1.49-.99,2.57-1.61,3.22-.76.83-1.84,1.25-3.22,1.25s-2.46-.42-3.22-1.25c-.62-.66-1.16-1.73-1.61-3.22L5.25,6.07v31.15H0Z"/>
      <path class="cls-2" d="M42.8,29.89v-3.28c0-2.46.54-4.44,1.62-5.93,1.22-1.7,3.01-2.55,5.37-2.55h11.26v-1.85c0-.49-.17-.92-.52-1.29s-.75-.55-1.2-.55h-16.53v-4.52h16.17c3.57,0,5.74,1.68,6.5,5.04.07.55.1.97.1,1.25v14.04c0,1.25-.33,2.41-.99,3.48-1.46,2.32-3.35,3.48-5.67,3.48h-9.1c-1.35,0-2.67-.47-3.95-1.4-1.28-.94-2.17-2.04-2.65-3.33-.28-.76-.42-1.63-.42-2.6ZM48.52,32.28c.52.28,1.38.42,2.57.42h6.18c2.51,0,3.77-.9,3.77-2.7v-4.42c0-1.73-1.07-2.7-3.2-2.91h-7.28c-2.17.24-3.25,1.21-3.25,2.91v4.42c0,1.11.4,1.87,1.21,2.29Z"/>
      <path class="cls-2" d="M71.92,30.09v-13.31c0-2.22.67-3.92,2.01-5.1,1.34-1.18,3.14-1.77,5.4-1.77h10.64V.82h4.52v28.7c0,1.94-.65,3.71-1.95,5.3s-2.92,2.39-4.86,2.39h-8.94c-.8,0-1.7-.22-2.7-.68-2.74-1.21-4.11-3.36-4.11-6.45ZM76.49,30.09c.28,1.74,1.08,2.61,2.41,2.61h8.07c.7,0,1.29-.23,1.78-.68.8-.56,1.2-1.43,1.2-2.61v-12.05c0-1.95-.82-2.92-2.46-2.92h-8.07c-1.99,0-2.99,1.01-2.99,3.03v12.31c0,.14.02.24.05.31Z"/>
      <path class="cls-2" d="M137.83,37.22v-5.25h15.08c.76-.07,1.45-.39,2.05-.97.61-.57.91-1.25.91-2.01v-4.65c0-1.71-1.1-2.7-3.29-2.98-.1-.03-.3-.05-.57-.05h-5.48c-2.29,0-4.29-.64-6-1.92-1.81-1.39-2.71-3.21-2.71-5.46v-4.63c0-3.81,1.49-6.41,4.47-7.8.97-.45,2.39-.68,4.26-.68h14.77v5.25h-15.29c-.1.04-.19.05-.26.05-1.8.28-2.7,1.27-2.7,2.96v3.59c0,2.53,1.14,3.8,3.43,3.8h6.4c1.59,0,3.08.4,4.47,1.2,2.5,1.42,3.74,3.36,3.74,5.82v5.72c0,2.77-1.12,4.94-3.37,6.5-1.45,1.01-3.06,1.51-4.82,1.51h-15.1Z"/>
      <path class="cls-2" d="M166.64,30.3v-13.52c0-2.25.71-3.99,2.13-5.2,1.32-1.11,3.12-1.66,5.41-1.66h10.45v4.52h-10.49c-1.98,0-2.98.97-2.98,2.92v11.89c0,.94.29,1.75.86,2.43.57.68,1.33,1.02,2.27,1.02h10.39v4.52h-10.4c-1.53,0-2.84-.31-3.95-.94-2.46-1.39-3.69-3.38-3.69-5.98Z"/>
      <path class="cls-2" d="M188.95,3.94c0-.87.29-1.6.88-2.21.59-.61,1.32-.91,2.18-.91s1.6.32,2.21.96c.61.64.91,1.4.91,2.26s-.29,1.59-.88,2.18-1.32.88-2.18.88-1.65-.3-2.24-.91c-.59-.61-.88-1.36-.88-2.26ZM189.78,37.22h4.58V9.92h-4.58v27.3Z"/>
      <path class="cls-2" d="M200.7,30.04v-12.22c0-5.27,2.83-7.9,8.48-7.9h6.76c2.22,0,3.97.62,5.25,1.85,1.28,1.23,1.92,2.94,1.92,5.12v3.22l-17.89,8.32v1.2c.21,1.18.49,1.96.83,2.34.42.49,1.18.73,2.29.73h15.07v4.52h-15.29c-2.15,0-3.93-.66-5.33-1.98-1.4-1.32-2.11-3.05-2.11-5.2ZM205.22,23.44l13.31-6.19v-.42c0-1.59-.92-2.38-2.77-2.38h-7.46c-2.05,0-3.08,1.15-3.08,3.45v5.54Z"/>
      <path class="cls-2" d="M228.88,37.22v-20.28c0-4.68,2.57-7.02,7.7-7.02h7.18c5.13,0,7.7,2.34,7.7,7.02v20.28h-4.52v-20.96c-.24-1.14-1.27-1.72-3.09-1.72h-7.28c-1.15,0-1.97.21-2.44.62-.47.42-.71,1.2-.71,2.34v19.71h-4.52Z"/>
      <path class="cls-2" d="M257.79,30.3v-13.52c0-2.25.71-3.99,2.13-5.2,1.32-1.11,3.12-1.66,5.41-1.66h10.45v4.52h-10.49c-1.98,0-2.97.97-2.97,2.92v11.89c0,.94.29,1.75.86,2.43.57.68,1.33,1.02,2.27,1.02h10.39v4.52h-10.4c-1.53,0-2.84-.31-3.95-.94-2.46-1.39-3.69-3.38-3.69-5.98Z"/>
      <path class="cls-2" d="M280.93,30.04v-12.22c0-5.27,2.83-7.9,8.48-7.9h6.76c2.22,0,3.97.62,5.25,1.85,1.28,1.23,1.92,2.94,1.92,5.12v3.22l-17.89,8.32v1.2c.21,1.18.49,1.96.83,2.34.42.49,1.18.73,2.29.73h15.07v4.52h-15.29c-2.15,0-3.93-.66-5.33-1.98-1.4-1.32-2.11-3.05-2.11-5.2ZM285.46,23.44l13.31-6.19v-.42c0-1.59-.92-2.38-2.77-2.38h-7.46c-2.05,0-3.08,1.15-3.08,3.45v5.54Z"/>
    </g>
    <g>
      <path class="cls-1" d="M0,37.22V6.12C0,3.38.83,1.63,2.49.87,3.6.35,4.62.09,5.55.09c2.35,0,3.96,1.53,4.82,4.58l7.69,26.65L26.09,4.66C26.99,1.61,28.6.09,30.93.09c.94,0,1.96.26,3.07.78,1.63.76,2.45,2.51,2.45,5.25v31.1h-5.25V6.07l-8.11,27.14c-.45,1.49-.99,2.57-1.61,3.22-.76.83-1.84,1.25-3.22,1.25s-2.46-.42-3.22-1.25c-.62-.66-1.16-1.73-1.61-3.22L5.25,6.07v31.15H0Z"/>
      <path class="cls-1" d="M42.8,29.89v-3.28c0-2.46.54-4.44,1.62-5.93,1.22-1.7,3.01-2.55,5.37-2.55h11.26v-1.85c0-.49-.17-.92-.52-1.29s-.75-.55-1.2-.55h-16.53v-4.52h16.17c3.57,0,5.74,1.68,6.5,5.04.07.55.1.97.1,1.25v14.04c0,1.25-.33,2.41-.99,3.48-1.46,2.32-3.35,3.48-5.67,3.48h-9.1c-1.35,0-2.67-.47-3.95-1.4-1.28-.94-2.17-2.04-2.65-3.33-.28-.76-.42-1.63-.42-2.6ZM48.52,32.28c.52.28,1.38.42,2.57.42h6.18c2.51,0,3.77-.9,3.77-2.7v-4.42c0-1.73-1.07-2.7-3.2-2.91h-7.28c-2.17.24-3.25,1.21-3.25,2.91v4.42c0,1.11.4,1.87,1.21,2.29Z"/>
      <path class="cls-1" d="M71.92,30.09v-13.31c0-2.22.67-3.92,2.01-5.1,1.34-1.18,3.14-1.77,5.4-1.77h10.64V.82h4.52v28.7c0,1.94-.65,3.71-1.95,5.3s-2.92,2.39-4.86,2.39h-8.94c-.8,0-1.7-.22-2.7-.68-2.74-1.21-4.11-3.36-4.11-6.45ZM76.49,30.09c.28,1.74,1.08,2.61,2.41,2.61h8.07c.7,0,1.29-.23,1.78-.68.8-.56,1.2-1.43,1.2-2.61v-12.05c0-1.95-.82-2.92-2.46-2.92h-8.07c-1.99,0-2.99,1.01-2.99,3.03v12.31c0,.14.02.24.05.31Z"/>
      <path class="cls-1" d="M137.83,37.22v-5.25h15.08c.76-.07,1.45-.39,2.05-.97.61-.57.91-1.25.91-2.01v-4.65c0-1.71-1.1-2.7-3.29-2.98-.1-.03-.3-.05-.57-.05h-5.48c-2.29,0-4.29-.64-6-1.92-1.81-1.39-2.71-3.21-2.71-5.46v-4.63c0-3.81,1.49-6.41,4.47-7.8.97-.45,2.39-.68,4.26-.68h14.77v5.25h-15.29c-.1.04-.19.05-.26.05-1.8.28-2.7,1.27-2.7,2.96v3.59c0,2.53,1.14,3.8,3.43,3.8h6.4c1.59,0,3.08.4,4.47,1.2,2.5,1.42,3.74,3.36,3.74,5.82v5.72c0,2.77-1.12,4.94-3.37,6.5-1.45,1.01-3.06,1.51-4.82,1.51h-15.1Z"/>
      <path class="cls-1" d="M166.64,30.3v-13.52c0-2.25.71-3.99,2.13-5.2,1.32-1.11,3.12-1.66,5.41-1.66h10.45v4.52h-10.49c-1.98,0-2.98.97-2.98,2.92v11.89c0,.94.29,1.75.86,2.43.57.68,1.33,1.02,2.27,1.02h10.39v4.52h-10.4c-1.53,0-2.84-.31-3.95-.94-2.46-1.39-3.69-3.38-3.69-5.98Z"/>
      <path class="cls-1" d="M188.95,3.94c0-.87.29-1.6.88-2.21.59-.61,1.32-.91,2.18-.91s1.6.32,2.21.96c.61.64.91,1.4.91,2.26s-.29,1.59-.88,2.18-1.32.88-2.18.88-1.65-.3-2.24-.91c-.59-.61-.88-1.36-.88-2.26ZM189.78,37.22h4.58V9.92h-4.58v27.3Z"/>
      <path class="cls-1" d="M200.7,30.04v-12.22c0-5.27,2.83-7.9,8.48-7.9h6.76c2.22,0,3.97.62,5.25,1.85,1.28,1.23,1.92,2.94,1.92,5.12v3.22l-17.89,8.32v1.2c.21,1.18.49,1.96.83,2.34.42.49,1.18.73,2.29.73h15.07v4.52h-15.29c-2.15,0-3.93-.66-5.33-1.98-1.4-1.32-2.11-3.05-2.11-5.2ZM205.22,23.44l13.31-6.19v-.42c0-1.59-.92-2.38-2.77-2.38h-7.46c-2.05,0-3.08,1.15-3.08,3.45v5.54Z"/>
      <path class="cls-1" d="M228.88,37.22v-20.28c0-4.68,2.57-7.02,7.7-7.02h7.18c5.13,0,7.7,2.34,7.7,7.02v20.28h-4.52v-20.96c-.24-1.14-1.27-1.72-3.09-1.72h-7.28c-1.15,0-1.97.21-2.44.62-.47.42-.71,1.2-.71,2.34v19.71h-4.52Z"/>
      <path class="cls-1" d="M257.79,30.3v-13.52c0-2.25.71-3.99,2.13-5.2,1.32-1.11,3.12-1.66,5.41-1.66h10.45v4.52h-10.49c-1.98,0-2.97.97-2.97,2.92v11.89c0,.94.29,1.75.86,2.43.57.68,1.33,1.02,2.27,1.02h10.39v4.52h-10.4c-1.53,0-2.84-.31-3.95-.94-2.46-1.39-3.69-3.38-3.69-5.98Z"/>
      <path class="cls-1" d="M280.93,30.04v-12.22c0-5.27,2.83-7.9,8.48-7.9h6.76c2.22,0,3.97.62,5.25,1.85,1.28,1.23,1.92,2.94,1.92,5.12v3.22l-17.89,8.32v1.2c.21,1.18.49,1.96.83,2.34.42.49,1.18.73,2.29.73h15.07v4.52h-15.29c-2.15,0-3.93-.66-5.33-1.98-1.4-1.32-2.11-3.05-2.11-5.2ZM285.46,23.44l13.31-6.19v-.42c0-1.59-.92-2.38-2.77-2.38h-7.46c-2.05,0-3.08,1.15-3.08,3.45v5.54Z"/>
    </g>
    <g>
      <path class="cls-6" d="M0,37.22V6.12C0,3.38.83,1.63,2.49.87,3.6.35,4.62.09,5.55.09c2.35,0,3.96,1.53,4.82,4.58l7.69,26.65L26.09,4.66C26.99,1.61,28.6.09,30.93.09c.94,0,1.96.26,3.07.78,1.63.76,2.45,2.51,2.45,5.25v31.1h-5.25V6.07l-8.11,27.14c-.45,1.49-.99,2.57-1.61,3.22-.76.83-1.84,1.25-3.22,1.25s-2.46-.42-3.22-1.25c-.62-.66-1.16-1.73-1.61-3.22L5.25,6.07v31.15H0Z"/>
      <path class="cls-6" d="M42.8,29.89v-3.28c0-2.46.54-4.44,1.62-5.93,1.22-1.7,3.01-2.55,5.37-2.55h11.26v-1.85c0-.49-.17-.92-.52-1.29s-.75-.55-1.2-.55h-16.53v-4.52h16.17c3.57,0,5.74,1.68,6.5,5.04.07.55.1.97.1,1.25v14.04c0,1.25-.33,2.41-.99,3.48-1.46,2.32-3.35,3.48-5.67,3.48h-9.1c-1.35,0-2.67-.47-3.95-1.4-1.28-.94-2.17-2.04-2.65-3.33-.28-.76-.42-1.63-.42-2.6ZM48.52,32.28c.52.28,1.38.42,2.57.42h6.18c2.51,0,3.77-.9,3.77-2.7v-4.42c0-1.73-1.07-2.7-3.2-2.91h-7.28c-2.17.24-3.25,1.21-3.25,2.91v4.42c0,1.11.4,1.87,1.21,2.29Z"/>
      <path class="cls-6" d="M71.92,30.09v-13.31c0-2.22.67-3.92,2.01-5.1,1.34-1.18,3.14-1.77,5.4-1.77h10.64V.82h4.52v28.7c0,1.94-.65,3.71-1.95,5.3s-2.92,2.39-4.86,2.39h-8.94c-.8,0-1.7-.22-2.7-.68-2.74-1.21-4.11-3.36-4.11-6.45ZM76.49,30.09c.28,1.74,1.08,2.61,2.41,2.61h8.07c.7,0,1.29-.23,1.78-.68.8-.56,1.2-1.43,1.2-2.61v-12.05c0-1.95-.82-2.92-2.46-2.92h-8.07c-1.99,0-2.99,1.01-2.99,3.03v12.31c0,.14.02.24.05.31Z"/>
      <path class="cls-6" d="M137.83,37.22v-5.25h15.08c.76-.07,1.45-.39,2.05-.97.61-.57.91-1.25.91-2.01v-4.65c0-1.71-1.1-2.7-3.29-2.98-.1-.03-.3-.05-.57-.05h-5.48c-2.29,0-4.29-.64-6-1.92-1.81-1.39-2.71-3.21-2.71-5.46v-4.63c0-3.81,1.49-6.41,4.47-7.8.97-.45,2.39-.68,4.26-.68h14.77v5.25h-15.29c-.1.04-.19.05-.26.05-1.8.28-2.7,1.27-2.7,2.96v3.59c0,2.53,1.14,3.8,3.43,3.8h6.4c1.59,0,3.08.4,4.47,1.2,2.5,1.42,3.74,3.36,3.74,5.82v5.72c0,2.77-1.12,4.94-3.37,6.5-1.45,1.01-3.06,1.51-4.82,1.51h-15.1Z"/>
      <path class="cls-6" d="M166.64,30.3v-13.52c0-2.25.71-3.99,2.13-5.2,1.32-1.11,3.12-1.66,5.41-1.66h10.45v4.52h-10.49c-1.98,0-2.98.97-2.98,2.92v11.89c0,.94.29,1.75.86,2.43.57.68,1.33,1.02,2.27,1.02h10.39v4.52h-10.4c-1.53,0-2.84-.31-3.95-.94-2.46-1.39-3.69-3.38-3.69-5.98Z"/>
      <path class="cls-6" d="M188.95,3.94c0-.87.29-1.6.88-2.21.59-.61,1.32-.91,2.18-.91s1.6.32,2.21.96c.61.64.91,1.4.91,2.26s-.29,1.59-.88,2.18-1.32.88-2.18.88-1.65-.3-2.24-.91c-.59-.61-.88-1.36-.88-2.26ZM189.78,37.22h4.58V9.92h-4.58v27.3Z"/>
      <path class="cls-6" d="M200.7,30.04v-12.22c0-5.27,2.83-7.9,8.48-7.9h6.76c2.22,0,3.97.62,5.25,1.85,1.28,1.23,1.92,2.94,1.92,5.12v3.22l-17.89,8.32v1.2c.21,1.18.49,1.96.83,2.34.42.49,1.18.73,2.29.73h15.07v4.52h-15.29c-2.15,0-3.93-.66-5.33-1.98-1.4-1.32-2.11-3.05-2.11-5.2ZM205.22,23.44l13.31-6.19v-.42c0-1.59-.92-2.38-2.77-2.38h-7.46c-2.05,0-3.08,1.15-3.08,3.45v5.54Z"/>
      <path class="cls-6" d="M228.88,37.22v-20.28c0-4.68,2.57-7.02,7.7-7.02h7.18c5.13,0,7.7,2.34,7.7,7.02v20.28h-4.52v-20.96c-.24-1.14-1.27-1.72-3.09-1.72h-7.28c-1.15,0-1.97.21-2.44.62-.47.42-.71,1.2-.71,2.34v19.71h-4.52Z"/>
      <path class="cls-6" d="M257.79,30.3v-13.52c0-2.25.71-3.99,2.13-5.2,1.32-1.11,3.12-1.66,5.41-1.66h10.45v4.52h-10.49c-1.98,0-2.97.97-2.97,2.92v11.89c0,.94.29,1.75.86,2.43.57.68,1.33,1.02,2.27,1.02h10.39v4.52h-10.4c-1.53,0-2.84-.31-3.95-.94-2.46-1.39-3.69-3.38-3.69-5.98Z"/>
      <path class="cls-6" d="M280.93,30.04v-12.22c0-5.27,2.83-7.9,8.48-7.9h6.76c2.22,0,3.97.62,5.25,1.85,1.28,1.23,1.92,2.94,1.92,5.12v3.22l-17.89,8.32v1.2c.21,1.18.49,1.96.83,2.34.42.49,1.18.73,2.29.73h15.07v4.52h-15.29c-2.15,0-3.93-.66-5.33-1.98-1.4-1.32-2.11-3.05-2.11-5.2ZM285.46,23.44l13.31-6.19v-.42c0-1.59-.92-2.38-2.77-2.38h-7.46c-2.05,0-3.08,1.15-3.08,3.45v5.54Z"/>
    </g>
  </g>
  <g>
    <path class="cls-5" d="M138.9,58.13v-10.13c0-.77.22-1.36.66-1.77s1.04-.62,1.81-.62h2.97c.67,0,1.19.13,1.55.4.62.47.94,1.1.94,1.89v4.54c0,.72-.2,1.3-.6,1.75-.52.59-1.12.88-1.82.88h-3.94v3.08h-1.57ZM140.48,52.55c.04.33.13.55.27.67.22.18.41.27.58.27h3.03s.08,0,.11-.02c.42-.08.68-.33.76-.74.01-.04.02-.1.02-.18v-4.64c-.02-.25-.08-.43-.17-.52-.09-.1-.26-.17-.52-.22h-2.97c-.75,0-1.12.32-1.12.96v4.24c0,.1,0,.16.02.18Z"/>
    <path class="cls-5" d="M156.75,55.05v-6.95c0-.16.01-.34.04-.54.07-.62.25-1.08.53-1.36s.74-.47,1.36-.57c.16-.02.29-.04.41-.04h.88v1.57h-.78c-.58,0-.87.32-.87.96v6.93h-1.57Z"/>
    <path class="cls-5" d="M169.05,52.73v-4.91c0-1.3.7-2.03,2.11-2.2.05,0,.12,0,.22-.02h3.1c.08,0,.21.01.38.04,1.43.2,2.14.93,2.14,2.18v4.91c0,.86-.43,1.54-1.3,2.03-.34.19-.74.29-1.22.29h-2.95c-1.2,0-1.99-.57-2.36-1.71-.13-.38-.17-.59-.11-.61ZM171.76,53.49h2.56c.74,0,1.11-.4,1.11-1.21v-3.97c0-.76-.37-1.14-1.11-1.14h-2.56c-.76,0-1.14.38-1.14,1.14v3.92c0,.84.38,1.26,1.14,1.26Z"/>
    <path class="cls-5" d="M186.92,52.59v-4.61c0-.77.23-1.36.7-1.76.46-.41,1.09-.61,1.87-.61h3.68v-3.15h1.57v9.94c0,.67-.23,1.28-.67,1.84-.45.55-1.01.83-1.68.83h-3.1c-.28,0-.59-.08-.94-.23-.95-.42-1.42-1.16-1.42-2.23ZM188.5,52.59c.1.6.38.9.83.9h2.79c.24,0,.45-.08.62-.23.28-.19.42-.49.42-.9v-4.17c0-.67-.28-1.01-.85-1.01h-2.79c-.69,0-1.03.35-1.03,1.05v4.26s0,.08.02.11Z"/>
    <path class="cls-5" d="M204.67,52.62v-7.02h1.6v7.25c.08.4.44.59,1.07.59h2.51c.39,0,.66-.08.82-.23.16-.15.24-.42.24-.8v-6.82h1.57v7.02c0,1.62-.89,2.43-2.66,2.43h-2.48c-1.78,0-2.66-.81-2.66-2.43Z"/>
    <path class="cls-5" d="M222.42,52.66v-4.68c0-.78.25-1.38.74-1.8.46-.38,1.08-.58,1.87-.58h3.62v1.57h-3.63c-.69,0-1.03.34-1.03,1.01v4.12c0,.33.1.61.3.84.2.23.46.35.79.35h3.6v1.57h-3.6c-.53,0-.98-.11-1.37-.32-.85-.48-1.28-1.17-1.28-2.07Z"/>
    <path class="cls-5" d="M238.17,55.05v-12.6h1.57v3.15h1.64v1.57h-1.64v7.88h-1.57Z"/>
    <path class="cls-5" d="M249.76,43.54c0-.3.1-.56.31-.77s.46-.31.76-.31.55.11.76.33c.21.22.32.48.32.78s-.1.55-.31.76c-.21.2-.46.31-.76.31s-.57-.11-.77-.32-.31-.47-.31-.78ZM250.05,55.05h1.58v-9.45h-1.58v9.45Z"/>
    <path class="cls-5" d="M261.57,52.73v-4.91c0-1.3.7-2.03,2.11-2.2.05,0,.12,0,.22-.02h3.1c.08,0,.21.01.38.04,1.43.2,2.14.93,2.14,2.18v4.91c0,.86-.43,1.54-1.3,2.03-.34.19-.74.29-1.22.29h-2.95c-1.2,0-1.99-.57-2.36-1.71-.13-.38-.17-.59-.11-.61ZM264.27,53.49h2.56c.74,0,1.11-.4,1.11-1.21v-3.97c0-.76-.37-1.14-1.11-1.14h-2.56c-.76,0-1.14.38-1.14,1.14v3.92c0,.84.38,1.26,1.14,1.26Z"/>
    <path class="cls-5" d="M279.44,55.05v-7.02c0-1.62.89-2.43,2.66-2.43h2.48c1.78,0,2.66.81,2.66,2.43v7.02h-1.57v-7.25c-.08-.4-.44-.59-1.07-.59h-2.52c-.4,0-.68.07-.84.22-.16.14-.24.41-.24.81v6.82h-1.57Z"/>
    <path class="cls-5" d="M296.92,55.05v-1.57h4.81c.14,0,.27-.06.38-.18.18-.14.27-.4.27-.77v-.72c0-.59-.31-.88-.92-.88h-2.15c-1.02,0-1.73-.34-2.13-1.03-.17-.29-.25-.6-.25-.94v-1.21c0-.67.18-1.2.55-1.58.36-.38.88-.58,1.54-.58h4.94v1.57h-4.79c-.44,0-.66.23-.66.69v.69c0,.23.08.42.25.56.17.14.37.22.61.22h2.34c.18,0,.32.01.43.04.54.12.98.37,1.31.76s.5.85.5,1.39v1.48c0,.65-.27,1.2-.82,1.66-.45.28-.85.41-1.18.41h-5.01Z"/>
  </g>
  <g>
    <polygon class="cls-4" points="104.36 0 125.36 5 130.36 33 117.36 33 128.36 55 126.36 54 102.36 25 104.36 24 115.36 24 100.36 2 104.36 0"/>
    <g>
      <polygon class="cls-3" points="127.45 53.91 104.62 24.12 118.58 24.12 104.62 .19 125.25 5.1 130.21 32.88 117.16 32.88 127.91 54.37 127.45 53.91"/>
      <path class="cls-4" d="M104.87.38l20.27,4.83,4.92,27.54h-13.11l.18.36,10.27,20.53-22.54-29.4h13.93l-.22-.38L104.87.38M104.36,0l14,24h-14l23,30,1,1-11-22h13l-5-28L104.36,0h0Z"/>
    </g>
  </g>
</svg>